<?xml version="1.0" encoding="utf-8"?>
<!-- Generator: Adobe Illustrator 17.0.0, SVG Export Plug-In . SVG Version: 6.00 Build 0)  -->
<!DOCTYPE svg PUBLIC "-//W3C//DTD SVG 1.1//EN" "http://www.w3.org/Graphics/SVG/1.1/DTD/svg11.dtd">
<svg version="1.1" id="Layer_1" xmlns="http://www.w3.org/2000/svg" xmlns:xlink="http://www.w3.org/1999/xlink" x="0px" y="0px"
	 width="13.258px" height="17.077px" viewBox="0 0 13.258 17.077" enable-background="new 0 0 13.258 17.077" xml:space="preserve">
<g>
	<defs>
		<rect id="SVGID_1_" y="0" width="13.258" height="17.077"/>
	</defs>
	<clipPath id="SVGID_2_">
		<use xlink:href="#SVGID_1_"  overflow="visible"/>
	</clipPath>
	<path clip-path="url(#SVGID_2_)" fill="#EC7406" d="M9.504,11.855l-1.296,0.764c-0.167,0.098-0.381,0.043-0.48-0.124l-3.803-6.45
		C3.827,5.879,3.882,5.664,4.049,5.566l1.296-0.765c0.424-0.25,0.624-0.757,0.484-1.23l-1.06-3.213
		C4.677,0.046,4.316-0.096,4.036,0.07L1.927,1.313C0.064,2.412-0.555,4.812,0.543,6.674l4.999,8.477
		c1.098,1.862,3.498,2.481,5.36,1.383l2.109-1.244c0.281-0.165,0.331-0.549,0.103-0.781l-2.299-2.482
		C10.469,11.675,9.929,11.605,9.504,11.855"/>
</g>
</svg>
