<?xml version="1.0" encoding="utf-8"?><svg xmlns="http://www.w3.org/2000/svg" xmlns:xlink="http://www.w3.org/1999/xlink"><symbol viewBox="0 0 17.971 33.118" id="arrow_right"><defs><path id="aa" d="M0 0h17.971v33.118H0z"/></defs><clipPath id="ab"><use xlink:href="#aa" overflow="visible"/></clipPath><path clip-path="url(#ab)" d="M17.968 16.559l.002-.002L1.707.293A1 1 0 0 0 .293 1.708L15.145 16.56.293 31.411a1 1 0 0 0 1.414 1.414l16.264-16.263-.003-.003z"/></symbol><symbol viewBox="0 0 16.99 16.99" id="del"><path fill-rule="evenodd" clip-rule="evenodd" d="M10.612 8.495l5.94-5.94A1.498 1.498 0 0 0 14.435.438l-5.939 5.94L2.557.438A1.496 1.496 0 1 0 .44 2.555l5.939 5.939-5.939 5.94a1.496 1.496 0 1 0 2.117 2.116l5.94-5.939 5.939 5.939a1.496 1.496 0 1 0 2.117-2.116l-5.941-5.939z"/></symbol><symbol viewBox="0 0 13.258 17.077" id="phone"><defs><path id="ca" d="M0 0h13.258v17.077H0z"/></defs><clipPath id="cb"><use xlink:href="#ca" overflow="visible"/></clipPath><path clip-path="url(#cb)" d="M9.504 11.855l-1.296.764a.35.35 0 0 1-.48-.124l-3.803-6.45a.35.35 0 0 1 .124-.479l1.296-.765c.424-.25.624-.757.484-1.23L4.769.358A.499.499 0 0 0 4.036.07L1.927 1.313A3.915 3.915 0 0 0 .543 6.674l4.999 8.477a3.914 3.914 0 0 0 5.36 1.383l2.109-1.244a.5.5 0 0 0 .103-.781l-2.299-2.482a1.074 1.074 0 0 0-1.311-.172"/></symbol></svg>