<?xml version="1.0" encoding="utf-8"?>
<!-- Generator: Adobe Illustrator 17.0.0, SVG Export Plug-In . SVG Version: 6.00 Build 0)  -->
<!DOCTYPE svg PUBLIC "-//W3C//DTD SVG 1.1//EN" "http://www.w3.org/Graphics/SVG/1.1/DTD/svg11.dtd">
<svg version="1.1" id="Laag_1" xmlns="http://www.w3.org/2000/svg" xmlns:xlink="http://www.w3.org/1999/xlink" x="0px" y="0px"
	 width="139.806px" height="163.529px" viewBox="0 0 139.806 163.529" enable-background="new 0 0 139.806 163.529"
	 xml:space="preserve">
<g>
	<path fill="#C62026" d="M18.693,137.844c-1.046-2.236-3.269-2.41-3.925-2.41c-1.53,0-2.842,0.607-3.904,1.805
		c-0.825-1.146-1.994-1.74-3.481-1.765c-1.262,0-2.298,0.505-2.959,0.941c-0.026-0.393-0.354-0.705-0.754-0.705H1.971
		c-0.417,0-0.757,0.339-0.757,0.757v19.867c0,0.417,0.34,0.756,0.757,0.756h1.658c0.417,0,0.757-0.339,0.757-0.756v-16.203
		c0.25-0.468,0.307-0.538,0.568-0.8c0.301-0.3,0.944-0.805,1.875-0.805c0.81,0,1.443,0.439,1.658,1.16
		c0.078,0.215,0.113,0.652,0.113,0.967v15.68c0,0.417,0.339,0.756,0.756,0.756h1.698c0.417,0,0.757-0.339,0.757-0.756v-15.921
		c0.085-0.2,0.199-0.451,0.478-0.841c0.491-0.646,1.15-0.975,2.005-1.005c0.527,0,0.91,0.158,1.007,0.217
		c0.653,0.373,0.725,1.004,0.725,3.332v14.219c0,0.417,0.34,0.756,0.757,0.756h1.698c0.417,0,0.756-0.339,0.756-0.756v-14.061
		C19.237,140.082,19.237,138.982,18.693,137.844z"/>
	<path fill="#C62026" d="M24.957,129.287h-1.698c-0.417,0-0.757,0.339-0.757,0.756v3.081c0,0.417,0.34,0.757,0.757,0.757h1.698
		c0.417,0,0.757-0.339,0.757-0.757v-3.081C25.714,129.626,25.374,129.287,24.957,129.287z"/>
	<path fill="#C62026" d="M24.917,135.711h-1.658c-0.417,0-0.757,0.339-0.757,0.757v19.867c0,0.417,0.34,0.756,0.757,0.756h1.658
		c0.417,0,0.757-0.339,0.757-0.756v-19.867C25.674,136.05,25.334,135.711,24.917,135.711z"/>
	<path fill="#C62026" d="M37.426,146.919l-0.006-0.006c-0.589-0.588-1.2-1.077-1.788-1.547c-1.394-1.161-2.466-2.159-2.874-2.678
		c-0.588-0.681-0.646-1.167-0.646-2.192c0-1.325,0.427-1.771,1.692-1.771c0.342,0,0.649,0.041,0.841,0.11
		c0.65,0.244,0.892,0.855,0.892,2.254v1.422c0,0.417,0.339,0.756,0.756,0.756h1.699c0.417,0,0.756-0.339,0.756-0.756v-1.417
		c0.001-0.776,0.003-2.074-0.602-3.237c-0.766-1.477-2.213-2.225-4.302-2.225c-3.188,0-4.943,1.784-4.943,5.022
		c0,2.337,0.954,3.695,1.684,4.524c0.854,0.855,1.829,1.723,2.896,2.575l0.214,0.178c1.455,1.203,2.119,1.751,2.119,3.546
		c0,0.889-0.184,2.025-1.064,2.396c-0.372,0.173-0.769,0.169-1.012,0.167l-0.09-0.001c-0.28,0-0.801,0-1.399-0.314
		c-0.205-0.104-0.372-0.254-0.496-0.448c-0.435-0.667-0.432-1.794-0.43-2.619v-1.313c0-0.417-0.339-0.757-0.756-0.757h-1.659
		c-0.417,0-0.756,0.339-0.756,0.757v1.698c0,1.913,0.232,2.739,0.657,3.585c0.191,0.432,0.351,0.644,0.483,0.821
		c0.021,0.028,0.044,0.054,0.068,0.078c0.371,0.372,0.853,0.718,1.019,0.828c0.902,0.534,2.033,0.816,3.269,0.816
		c1.404,0,2.299-0.407,2.697-0.589c1.778-0.857,2.68-2.575,2.68-5.104C39.024,149.117,38.155,147.696,37.426,146.919z"/>
	<path fill="#C62026" d="M47.272,138.803c0.417,0,0.757-0.339,0.757-0.756v-1.58c0-0.417-0.34-0.757-0.757-0.757h-2.245v-4.378
		c0-0.417-0.339-0.757-0.756-0.757h-1.699c-0.417,0-0.756,0.339-0.756,0.757v4.378h-1.337c-0.417,0-0.757,0.339-0.757,0.757v1.58
		c0,0.417,0.34,0.756,0.757,0.756h1.337v15.279c0,0.704,0.05,1.396,0.682,2.141c0.797,0.838,1.964,0.951,2.999,0.951
		c0.533,0,1.117-0.034,1.83-0.086c0.394-0.028,0.702-0.36,0.702-0.754v-1.58c0-0.211-0.089-0.414-0.243-0.556
		s-0.377-0.211-0.57-0.199l-0.104,0.008c-0.458,0.035-0.891,0.068-1.34,0.068c-0.745,0-0.745-0.189-0.745-0.389v-14.884H47.272z"/>
	<path fill="#C62026" d="M59.081,147.335c0.417,0,0.757-0.339,0.757-0.756v-4.188c0.001-1.48,0.002-3.323-0.927-4.737
		c-0.658-0.94-1.958-2.061-4.411-2.061c-3.418,0-4.595,2.147-4.993,3.432c-0.266,0.931-0.266,1.725-0.266,2.063v10.427
		c0,1.204,0.085,1.781,0.357,2.461c0.75,2.141,2.754,2.813,2.98,2.883c0.558,0.172,1.258,0.271,1.921,0.271
		c0.709,0,2.864,0,4.315-1.918c0.855-1.127,1.022-2.15,1.022-3.538v-1.487c0-0.417-0.34-0.757-0.757-0.757h-1.659
		c-0.417,0-0.756,0.339-0.756,0.757l0.001,0.587c0.003,1.505,0.005,1.57-0.239,2.241c-0.101,0.304-0.275,0.479-0.354,0.558
		c-0.508,0.479-1.301,0.504-1.455,0.504c-1.471,0-1.882-0.738-2.073-1.372c-0.061-0.229-0.133-0.629-0.133-1.229v-4.142H59.081z
		 M56.626,141.523v2.877h-4.214v-2.72c0-1.143,0.063-2.066,0.849-2.677c0.468-0.358,1.05-0.397,1.278-0.397
		c0.474,0,0.918,0.139,1.279,0.398C56.195,139.291,56.626,139.838,56.626,141.523z"/>
	<path fill="#C62026" d="M69.708,135.311L69.708,135.311c-0.226-0.139-0.499-0.151-0.737-0.034
		c-1.512,0.757-2.269,1.358-3.052,2.166v-0.976c0-0.417-0.34-0.757-0.757-0.757h-1.618c-0.417,0-0.757,0.339-0.757,0.757v19.867
		c0,0.417,0.34,0.756,0.757,0.756h1.658c0.417,0,0.756-0.339,0.756-0.756v-13.877c0.741-1.856,1.602-2.66,2.217-3.021
		c0.289-0.184,0.724-0.315,1.153-0.446l0.205-0.062c0.319-0.099,0.533-0.39,0.533-0.723v-2.251
		C70.067,135.691,69.933,135.45,69.708,135.311z"/>
	<path fill="#C62026" d="M90.455,138.666c-0.607-2.124-2.221-2.723-2.766-2.924l-0.1-0.03c-0.298-0.089-0.797-0.237-1.534-0.237
		c-0.148,0-0.931,0.016-1.808,0.325c-0.353,0.134-0.687,0.303-0.997,0.505l-0.033-7.858c-0.001-0.416-0.341-0.753-0.756-0.753
		h-1.699c-0.417,0-0.756,0.339-0.756,0.756v27.885c0,0.417,0.339,0.756,0.756,0.756h1.699c0.417,0,0.756-0.339,0.756-0.756
		l-0.001-15.752c0.005-0.039,0.08-0.364,0.265-0.672c0.028-0.052,0.708-1.265,2.141-1.265c0.262,0,0.58,0.064,0.665,0.09
		c1.007,0.282,1.185,1.149,1.185,2.867v14.732c0,0.417,0.34,0.756,0.757,0.756h1.698c0.417,0,0.756-0.339,0.756-0.756v-15.759
		C90.683,139.916,90.683,139.395,90.455,138.666z"/>
	<path fill="#C62026" d="M104.264,153.998h-0.091c-0.162,0.004-0.271,0.002-0.338-0.002v-13.263c0-1.604-0.162-3.405-2.103-4.5
		c-0.831-0.437-1.693-0.64-2.724-0.64c-2.354,0-3.94,0.879-4.715,2.612c-0.542,1.178-0.542,2.117-0.542,4.385
		c0,0.417,0.339,0.756,0.756,0.756h1.698c0.205,0,0.404-0.084,0.546-0.232c0.142-0.148,0.219-0.35,0.21-0.557
		c-0.031-0.823-0.084-2.199,0.292-3.021c0.173-0.393,0.449-0.811,1.56-0.811c0.606,0,0.88,0.02,1.154,0.225
		c0.619,0.421,0.618,1.219,0.617,2.143v2.005c-0.426,0.333-0.687,0.481-1.353,0.848c-0.347,0.194-0.702,0.38-1.06,0.566
		c-1.674,0.872-3.404,1.774-4.451,3.687c-0.538,1.009-0.8,2.146-0.8,3.476c0,3.341,1.772,5.417,4.627,5.417
		c1.26,0,2.415-0.366,3.523-1.117c0.095,0.126,0.21,0.246,0.357,0.373c0.692,0.629,1.498,0.745,2.834,0.745
		c0.417,0,0.757-0.339,0.757-0.756v-1.58C105.021,154.337,104.681,153.998,104.264,153.998z M100.624,146.727v5.873
		c-0.861,0.907-1.551,1.397-2.641,1.397c-1.529,0-1.851-1.242-1.851-2.284c0-1.769,0.625-2.776,2.379-3.844
		c0.258-0.145,0.521-0.282,0.817-0.437c0.385-0.2,0.778-0.405,1.15-0.625C100.529,146.781,100.577,146.754,100.624,146.727z"/>
	<path fill="#C62026" d="M115.916,136.431c-0.752-0.609-1.656-0.918-2.688-0.918c-0.609,0-1.747,0.125-2.919,0.903
		c-0.026-0.394-0.354-0.706-0.754-0.706h-1.699c-0.417,0-0.756,0.339-0.756,0.757v26.305c0,0.417,0.339,0.756,0.756,0.756h1.699
		c0.417,0,0.756-0.339,0.756-0.756v-6.322c1.029,0.653,2.072,0.759,2.641,0.759c2.081,0,3.779-1.212,4.431-3.164
		c0.329-0.988,0.354-1.915,0.354-2.175v-9.77C117.739,140.128,117.74,137.89,115.916,136.431z M114.527,151.002
		c0,1.029,0,2.309-0.818,2.827c-0.444,0.267-0.934,0.288-1.072,0.288c-0.828,0-1.616-0.402-2.059-1.05
		c-0.121-0.182-0.165-0.248-0.266-0.562l-0.006-12.021c0.033-0.15,0.094-0.36,0.27-0.654c0.068-0.126,0.708-1.23,2.14-1.264
		c0.86,0,1.483,0.503,1.707,1.367c0.063,0.312,0.103,0.862,0.104,0.962V151.002z"/>
	<path fill="#C62026" d="M124.848,157.725l-0.002-21.257c0-0.417-0.34-0.757-0.757-0.757h-1.658c-0.417,0-0.757,0.339-0.757,0.757
		v20.184l0.001,0.263c0.005,1.173,0.009,2.099-0.728,2.834c-0.366,0.368-0.563,0.444-1.179,0.589
		c-0.343,0.081-0.583,0.384-0.583,0.736v1.699c0,0.223,0.098,0.433,0.268,0.578c0.137,0.115,0.311,0.179,0.489,0.179
		c0.04,0,0.082-0.003,0.124-0.01c0.812-0.136,1.294-0.316,1.636-0.465c0.538-0.269,1.211-0.695,1.434-0.906
		C124.889,160.602,124.86,158.586,124.848,157.725z"/>
	<path fill="#C62026" d="M124.089,129.326h-1.658c-0.417,0-0.757,0.339-0.757,0.756v3.081c0,0.417,0.34,0.756,0.757,0.756h1.658
		c0.417,0,0.757-0.339,0.757-0.756v-3.081C124.846,129.666,124.506,129.326,124.089,129.326z"/>
	<path fill="#C62026" d="M137.834,147.335c0.417,0,0.757-0.339,0.757-0.756v-4.18c0.002-1.483,0.005-3.328-0.927-4.746
		c-0.658-0.94-1.958-2.061-4.412-2.061c-3.417,0-4.594,2.147-4.992,3.432c-0.267,0.931-0.267,1.725-0.267,2.064v10.427
		c0,1.201,0.085,1.779,0.358,2.461c0.752,2.146,2.755,2.814,2.98,2.883c0.558,0.172,1.258,0.271,1.92,0.271
		c0.709,0,2.865,0,4.316-1.918c0.855-1.127,1.022-2.15,1.022-3.538v-1.487c0-0.417-0.34-0.757-0.757-0.757h-1.659
		c-0.417,0-0.756,0.339-0.756,0.757l0.001-0.177c0.003,1.505,0.005,2.334-0.239,3.004c-0.1,0.301-0.274,0.478-0.354,0.559
		c-0.508,0.479-1.301,0.504-1.455,0.504c-1.471,0-1.882-0.738-2.074-1.374c-0.06-0.226-0.132-0.622-0.132-1.227v-4.142H137.834z
		 M131.165,141.68c0-1.143,0.063-2.066,0.85-2.677c0.468-0.358,1.049-0.397,1.277-0.397c0.63,0,1.075,0.252,1.279,0.398
		c0.376,0.287,0.808,0.833,0.808,2.519v2.877h-4.214V141.68z"/>
</g>
<g>
	<path fill="#C62026" d="M117.8,85.896c-0.284-0.12-0.611-0.053-0.828,0.164l-6.146,6.146l-6.306,6.306
		c-0.219,0.219-0.283,0.547-0.163,0.832c0.12,0.285,0.414,0.457,0.71,0.464c1.386-0.019,2.381-0.084,2.709-0.108l3.656,0.11
		c0.141,0.01,0.282,0.015,0.422,0.015c2.268,0,4.422-1.259,5.359-3.133c0.003-0.007,0.028-0.058,0.031-0.065
		c0.847-1.835,1.01-3.428,1.024-10.029C118.269,86.291,118.084,86.014,117.8,85.896z"/>
	<g>
		<polygon fill="#C62026" points="64.649,30.083 64.649,30.083 64.219,30.514 		"/>
		<path fill="#C62026" d="M64.219,31.273c-0.194,0-0.389-0.074-0.537-0.222c-0.148-0.148-0.223-0.343-0.223-0.537
			c0-0.194,0.074-0.389,0.222-0.537l0.43-0.43c0.297-0.297,0.778-0.296,1.074,0c0.148,0.148,0.223,0.343,0.223,0.537
			c0,0.194-0.074,0.389-0.222,0.537l-0.43,0.43C64.608,31.199,64.413,31.273,64.219,31.273z"/>
	</g>
	<g>
		<g>
			
				<rect x="93.875" y="66.819" transform="matrix(-0.7071 0.7071 -0.7071 -0.7071 207.5791 47.6571)" fill="#C62026" width="0.089" height="0"/>
			<path fill="#C62026" d="M93.888,67.611c-0.193,0-0.387-0.073-0.535-0.22c-0.147-0.146-0.222-0.337-0.225-0.529v0v0
				c-0.002-0.187,0.064-0.376,0.2-0.523c0,0,0,0,0.001-0.001l0,0c0,0,0,0,0.001-0.001c0,0,0,0,0.001-0.001c0,0,0-0.001,0.001-0.001
				l0,0c0.005-0.006,0.011-0.012,0.017-0.017l0.062-0.063c0.296-0.297,0.777-0.299,1.074-0.004c0.298,0.295,0.3,0.776,0.004,1.074
				l-0.004,0.004l0,0l-0.058,0.058C94.279,67.536,94.084,67.611,93.888,67.611z"/>
		</g>
	</g>
	<path fill="#C62026" d="M83.085,88.809C83.085,88.808,83.085,88.808,83.085,88.809c-0.105-1.054-0.105-1.774-0.105-2.186
		l0.029-1.207c0.007-0.31-0.175-0.594-0.46-0.716c-0.286-0.122-0.616-0.058-0.836,0.161L67.902,98.672
		c-0.221,0.221-0.284,0.555-0.159,0.841s0.409,0.467,0.725,0.455l0.945-0.038l8.123,0.116c3.222,0,5.561-3.358,5.561-7.985v-3.028
		C83.097,88.959,83.093,88.884,83.085,88.809z"/>
	<path fill="#C62026" d="M118.257,77.747L118.257,77.747c-0.026-2.053-0.099-3.966-0.223-5.831c-0.05-1.2-0.083-2.395-0.1-3.551
		c-0.013-0.901-0.013-1.592-0.013-2.038l0.11-15.946c0.002-0.308-0.182-0.587-0.467-0.706c-0.285-0.119-0.612-0.054-0.83,0.164
		L93.279,73.294c-0.129,0.129-0.207,0.301-0.22,0.483l-0.188,2.63c-0.004,0.062-0.006,0.124-0.006,0.183l0.117,13.898l0.033,1.307
		c0.095,3.597,0.15,4.198,0.789,5.476c0.417,0.833,1.515,2.277,4.191,2.594c0.03,0.004,0.06,0.005,0.089,0.005
		c0.2,0,0.394-0.079,0.537-0.223l19.425-19.425c0.143-0.143,0.223-0.336,0.223-0.538C118.268,79.091,118.266,78.446,118.257,77.747z
		"/>
	<path fill="#C62026" d="M47.805,85.886l-0.051-1.713c-0.009-0.303-0.197-0.572-0.479-0.684c-0.283-0.112-0.603-0.045-0.817,0.169
		l-15.21,15.21c-0.217,0.217-0.282,0.544-0.165,0.828c0.117,0.284,0.394,0.469,0.702,0.469c0.076,0,0.151-0.004,0.229-0.012
		c1.051-0.106,2.296-0.106,3.615-0.106c1.163,0,2.167,0,2.818,0.094c0.047,0.006,0.093,0.012,0.139,0.016
		c1.491,0.124,2.614,0.124,3.217,0.124c4.062,0,6.122-3.157,6.122-9.384C47.924,89.135,47.924,87.471,47.805,85.886z"/>
	<path fill="#C62026" d="M116.743,41.072c-0.676-2.165-1.578-4.123-2.682-5.819c-0.517-0.796-1.061-1.512-1.614-2.129l-0.057-0.062
		c-2.43-2.521-5.714-4.233-9.759-5.09c-0.25-0.054-0.512,0.024-0.694,0.206L57.798,72.318c-0.142,0.142-0.223,0.335-0.223,0.537
		v1.748l0.116,7.815l0,1.259c0,0.65,0,0.734-0.11,2.281c-0.004,0.055-0.006,0.11-0.006,0.165c0,1.257,0,2.342-0.107,3.52
		c-0.007,0.068-0.01,0.138-0.01,0.207v3.028c0,4.8,2.105,6.471,3.872,7.027c0.075,0.024,0.152,0.035,0.228,0.035
		c0.198,0,0.393-0.078,0.537-0.222l20.684-20.685c0.148-0.148,0.228-0.35,0.222-0.559l-0.024-0.805
		c-0.001-0.045-0.004-0.091-0.008-0.137c-0.107-1.179-0.107-3.391-0.107-5.734c0-1.971,0-3.528,0.053-4.61l0.012-0.22
		c0.011-0.192,0.024-0.373,0.04-0.535c0.005-0.05,0.008-0.099,0.01-0.145l0.116-3.259c0.206-5.37,0.206-5.37,0.81-6.425l0.038-0.067
		c0.66-1.091,2.13-1.795,3.746-1.795c2.018,0,3.159,0.682,3.938,2.355c0.285,0.613,0.515,1.345,0.705,2.249
		c0.294,1.323,0.637,4.566,0.797,7.545c0.016,0.299,0.207,0.561,0.487,0.668c0.28,0.108,0.597,0.04,0.809-0.172l22.83-22.829
		c0.18-0.18,0.258-0.438,0.208-0.687C117.275,42.941,117.033,42,116.743,41.072z"/>
	<path fill="#C62026" d="M47.392,4.475C46.565,1.798,44.461,0,42.157,0c-0.156,0-0.324,0.013-0.578,0.035
		c-0.379,0.033-0.951,0.082-1.671,0.082l-6.524,0.116h-2.588c-1.794,0-2.771,0.059-3.358,0.095c-0.19,0.011-0.34,0.021-0.428,0.021
		c-0.588,0-1.064,0.194-1.412,0.362c-0.121,0.058-0.239,0.12-0.376,0.192c-0.087,0.046-0.18,0.095-0.281,0.145
		c-1.319,0.649-2.22,1.86-2.677,3.599c-0.222,0.846-0.345,1.851-0.366,2.984l-0.002,0.087c-0.002,0.088-0.004,0.176-0.004,0.267
		v15.258c0,0.045,0.001,0.09,0.004,0.136l0.113,1.894l-0.052,3.364c-0.005,0.309,0.179,0.591,0.463,0.711
		c0.096,0.041,0.196,0.06,0.296,0.06c0.198,0,0.392-0.077,0.537-0.222L47.062,5.378l0.142-0.141
		C47.403,5.038,47.476,4.744,47.392,4.475z"/>
	<path fill="#C62026" d="M60.382,27.832c-0.126-0.287-0.421-0.473-0.727-0.454c-3.972,0.163-9.55,1.321-12.039,2.829l-0.104-2.11
		V25.11l0.344-3.261c0.008-0.079,0.012-0.158,0.012-0.237v-2.794c0-1.055,0-2.249-0.118-3.387c-0.004-1.109-0.067-1.98-0.101-2.45
		l-0.004-0.059c-0.006-0.083-0.011-0.147-0.012-0.147h0l0.027-1.385c0.006-0.31-0.177-0.592-0.462-0.714
		c-0.285-0.122-0.615-0.057-0.835,0.162L22.07,35.13c-0.14,0.139-0.219,0.328-0.222,0.525l-0.074,4.801l0,13.188l0,2.152
		l-0.236,6.386l-0.001,0.659c0,0.223,0.013,1.194,0.036,2.661c0.005,0.305,0.192,0.578,0.474,0.692
		c0.093,0.038,0.189,0.056,0.285,0.056c0.198,0,0.392-0.077,0.537-0.223l37.355-37.355C60.445,28.452,60.508,28.118,60.382,27.832z"
		/>
	<path fill="#C62026" d="M96.865,27.826c-0.118-0.284-0.394-0.469-0.701-0.469h-0.001c-4.311,0.006-6.741,0.168-8.109,0.538
		c-1.723,0.433-3.94,1.355-5.931,2.466c-1.189,0.663-2.171,1.327-2.84,1.919c-0.109,0.097-0.215,0.193-0.309,0.286
		c-0.412,0.412-0.731,0.69-0.956,0.87l-2.041-1.458c-2.109-1.541-5.893-3.045-9.876-3.926c-0.253-0.055-0.518,0.021-0.701,0.205
		L21.905,71.753c-0.146,0.146-0.226,0.344-0.223,0.55l0.144,8.202c0.066,3.599,0.131,7.003,0.184,9.377
		c0.034,1.544,0.063,2.656,0.083,3.105c0.004,0.08,0.012,0.159,0.023,0.236c0.138,1.98,0.617,4.751,3.12,6.122
		c0.115,0.063,0.24,0.093,0.365,0.093c0.197,0,0.391-0.076,0.537-0.223L47.33,78.025c0.15-0.149,0.23-0.354,0.222-0.565
		c-0.094-2.511-0.094-5.105-0.094-8.11v-2.095c0-0.45,0.007-0.887,0.02-1.316c0.184-6.454,1.647-9.933,2.282-10.526
		c1.099-1.013,2.197-1.485,3.456-1.485c1.396,0,2.491,0.691,3.167,2c0.45,0.872,0.695,1.96,0.728,3.231l0.116,5.234
		c0.001,0.037,0.002,0.075,0.005,0.114l0.123,1.717c0.021,0.297,0.214,0.554,0.492,0.657c0.279,0.104,0.592,0.036,0.802-0.175
		l38.052-38.052C96.918,28.437,96.983,28.11,96.865,27.826z"/>
</g>
<path fill="#C62026" d="M138.293,115.278H1.513c-0.834,0-1.513,0.679-1.513,1.513s0.679,1.513,1.513,1.513h136.78
	c0.834,0,1.513-0.679,1.513-1.513S139.127,115.278,138.293,115.278z"/>
</svg>
